<?xml version="1.0" standalone="no"?>
<!DOCTYPE svg PUBLIC "-//W3C//DTD SVG 20010904//EN"
 "http://www.w3.org/TR/2001/REC-SVG-20010904/DTD/svg10.dtd">
<svg version="1.0" xmlns="http://www.w3.org/2000/svg"
 width="512.000000pt" height="512.000000pt" viewBox="0 0 512.000000 512.000000"
 preserveAspectRatio="xMidYMid meet">

<g transform="translate(0.000000,512.000000) scale(0.100000,-0.100000)"
fill="#000000" stroke="none">
<path d="M2315 5109 c-800 -83 -1501 -518 -1927 -1196 -487 -774 -516 -1777
-75 -2578 200 -364 487 -676 841 -913 238 -159 600 -311 876 -366 214 -43 295
-51 530 -51 236 0 333 10 532 51 880 184 1615 842 1898 1702 92 278 125 491
125 802 0 301 -32 513 -116 775 -124 390 -330 728 -622 1024 -399 404 -893
653 -1462 737 -123 18 -478 26 -600 13z m105 -958 l0 -348 -315 -183 c-228
-131 -315 -187 -315 -200 0 -13 105 -78 383 -239 211 -121 389 -221 396 -221
16 0 740 417 766 441 19 19 19 19 0 38 -11 10 -150 94 -310 186 -159 92 -296
172 -303 179 -9 9 -12 89 -10 354 l3 342 780 -453 780 -452 3 -903 c1 -496 -1
-902 -5 -902 -5 1 -138 74 -298 164 l-290 163 -5 364 c-3 200 -9 370 -13 377
-5 6 -14 12 -20 12 -15 0 -711 -400 -750 -430 l-27 -22 2 -451 c3 -399 5 -452
19 -455 8 -1 156 79 327 178 l313 181 298 -173 c248 -143 296 -175 282 -184
-17 -12 -1490 -862 -1527 -882 -19 -10 -101 34 -705 384 -955 553 -876 504
-855 519 9 7 142 86 296 174 l278 162 313 -181 c172 -99 318 -179 326 -176 10
4 13 91 13 459 0 420 -1 455 -17 469 -10 8 -183 110 -385 227 -326 188 -377
213 -400 197 -1 0 -5 -167 -8 -371 l-5 -370 -285 -167 c-157 -91 -291 -167
-298 -167 -10 -1 -12 182 -10 901 l3 902 785 452 c432 249 786 453 788 453 1
1 2 -156 2 -348z"/>
</g>
</svg>
